# xmcd
#
# Track frame offsets: 
#        150
#        28360
#        56970
#        78527
#        102610
#        126172
#        152282
#        177185
#
# Disc length: 2640 seconds
#
# Revision: 18
# Processed by: cddbd v1.5.2PL0 Copyright (c) Steve Scherf et al.
# Submitted via: ExactAudioCopy v1.3
#
DISCID=6a0a4e08
DTITLE=Ulver - Nattens Madrigal - Aatte Hymne Til Ulven I Manden
DYEAR=1996
DGENRE=Black Metal
TTITLE0=Hymn I: Of Wolf And Fear
TTITLE1=Hymn II: Of Wolf And The Devil
TTITLE2=Hymn III: Of Wolf And Hatred
TTITLE3=Hymn IV: Of Wolf And Man
TTITLE4=Hymn V: Of Wolf And The Moon
TTITLE5=Hymn VI: Of Wolf And Passion
TTITLE6=Hymn VII: Of Wolf And Destiny
TTITLE7=Hymn VIII: Of Wolf And The Night
EXTD=YEAR: 1996
EXTT0=
EXTT1=
EXTT2=
EXTT3=
EXTT4=
EXTT5=
EXTT6=
EXTT7=
PLAYORDER=
